{"extensionsUsed" : ["KHR_materials_clearcoat", "KHR_materials_specular", "KHR_materials_ior"], "accessors" : [{"bufferView" : 0, "byteOffset" : 0, "componentType" : 5123, "count" : 5712, "type" : "SCALAR", "max" : [4740], "min" : [0]}, {"bufferView" : 1, "byteOffset" : 0, "componentType" : 5126, "count" : 4741, "type" : "VEC3", "max" : [0.6472212672233582, 0.655971109867096, 1.1965465545654297], "min" : [-0.6472211480140686, -0.6472213268280029, -1.1193459033966064], "name" : "POSITION"}, {"bufferView" : 1, "byteOffset" : 12, "componentType" : 5126, "count" : 4741, "type" : "VEC3", "max" : [0.9999982118606567, 0.9994396567344666, 0.6977070569992065], "min" : [-0.9999982118606567, -0.9999967813491821, -0.9285153150558472], "name" : "NORMAL"}, {"bufferView" : 1, "byteOffset" : 24, "componentType" : 5126, "count" : 4741, "type" : "VEC2", "max" : [1.0000001192092896, 2.1965465545654297], "min" : [0, -0.12009823322296143], "name" : "TEXCOORD_0"}, {"bufferView" : 0, "byteOffset" : 11424, "componentType" : 5123, "count" : 1152, "type" : "SCALAR", "max" : [957], "min" : [0]}, {"bufferView" : 2, "byteOffset" : 0, "componentType" : 5126, "count" : 958, "type" : "VEC3", "max" : [0.39950111508369446, 0.39953556656837463, -1.1193046569824219], "min" : [-0.39950114488601685, -0.3995002210140228, -1.726232647895813], "name" : "POSITION"}, {"bufferView" : 2, "byteOffset" : 12, "componentType" : 5126, "count" : 958, "type" : "VEC3", "max" : [0.9595335721969604, 0.9597382545471191, 0.6257338523864746], "min" : [-0.9595335721969604, -0.9595335721969604, -0.7171887159347534], "name" : "NORMAL"}, {"bufferView" : 2, "byteOffset" : 24, "componentType" : 5126, "count" : 958, "type" : "VEC2", "max" : [1.0000001192092896, -0.11964762210845947], "min" : [0, -0.726232647895813], "name" : "TEXCOORD_0"}, {"bufferView" : 0, "byteOffset" : 13728, "componentType" : 5123, "count" : 480, "type" : "SCALAR", "max" : [399], "min" : [0]}, {"bufferView" : 3, "byteOffset" : 0, "componentType" : 5126, "count" : 400, "type" : "VEC3", "max" : [0.5856981873512268, 0.715396523475647, 1.3389606475830078], "min" : [-0.5856980681419373, -0.5856980681419373, -0.8086028695106506], "name" : "POSITION"}, {"bufferView" : 3, "byteOffset" : 12, "componentType" : 5126, "count" : 400, "type" : "VEC3", "max" : [0.9797807335853577, 0.9999982118606567, 0.2940143048763275], "min" : [-0.9797807335853577, -0.9797807335853577, -0.6177093982696533], "name" : "NORMAL"}, {"bufferView" : 3, "byteOffset" : 24, "componentType" : 5126, "count" : 400, "type" : "VEC2", "max" : [1.0000001192092896, 2.1965465545654297], "min" : [0, 0.2340543270111084], "name" : "TEXCOORD_0"}, {"bufferView" : 0, "byteOffset" : 14688, "componentType" : 5123, "count" : 1458, "type" : "SCALAR", "max" : [1215], "min" : [0]}, {"bufferView" : 4, "byteOffset" : 0, "componentType" : 5126, "count" : 1216, "type" : "VEC3", "max" : [0.45784899592399597, 0.715396523475647, 1.3839048147201538], "min" : [-0.4578489363193512, -0.4584459066390991, -0.8313331007957458], "name" : "POSITION"}, {"bufferView" : 4, "byteOffset" : 12, "componentType" : 5126, "count" : 1216, "type" : "VEC3", "max" : [0.9965025186538696, 0.9999982118606567, 1.0000044107437134], "min" : [-0.9965025186538696, -0.8428158760070801, -0.9970970153808594], "name" : "NORMAL"}, {"bufferView" : 4, "byteOffset" : 24, "componentType" : 5126, "count" : 1216, "type" : "VEC2", "max" : [1.0000001192092896, 2.1965465545654297], "min" : [0, 0.23405426740646362], "name" : "TEXCOORD_0"}, {"bufferView" : 0, "byteOffset" : 17604, "componentType" : 5123, "count" : 396, "type" : "SCALAR", "max" : [316], "min" : [0]}, {"bufferView" : 5, "byteOffset" : 0, "componentType" : 5126, "count" : 317, "type" : "VEC3", "max" : [0.20748528838157654, 0.7454625964164734, 0.16305267810821533], "min" : [-0.36056193709373474, -7.710109217740069E-10, -0.16305258870124817], "name" : "POSITION"}, {"bufferView" : 5, "byteOffset" : 12, "componentType" : 5126, "count" : 317, "type" : "VEC3", "max" : [0.9438827633857727, 0.8709965348243713, 0.9991551637649536], "min" : [-0.9990137815475464, -0.47781699895858765, -0.9991551637649536], "name" : "NORMAL"}, {"bufferView" : 5, "byteOffset" : 24, "componentType" : 5126, "count" : 317, "type" : "VEC2", "max" : [0, 1], "min" : [0, 1], "name" : "TEXCOORD_0"}, {"bufferView" : 0, "byteOffset" : 18396, "componentType" : 5123, "count" : 1308, "type" : "SCALAR", "max" : [1033], "min" : [0]}, {"bufferView" : 6, "byteOffset" : 0, "componentType" : 5126, "count" : 1034, "type" : "VEC3", "max" : [1.283990740776062, 0.18205855786800385, 0.8566606640815735], "min" : [0.2665630280971527, -0.18205854296684265, -1.1297671794891357], "name" : "POSITION"}, {"bufferView" : 6, "byteOffset" : 12, "componentType" : 5126, "count" : 1034, "type" : "VEC3", "max" : [0.9990270733833313, 0.9984361529350281, 0.9847515225410461], "min" : [-0.9604376554489136, -0.9984361529350281, -0.9785783886909485], "name" : "NORMAL"}, {"bufferView" : 6, "byteOffset" : 24, "componentType" : 5126, "count" : 1034, "type" : "VEC2", "max" : [0, 1], "min" : [0, 1], "name" : "TEXCOORD_0"}, {"bufferView" : 0, "byteOffset" : 21012, "componentType" : 5123, "count" : 360, "type" : "SCALAR", "max" : [284], "min" : [0]}, {"bufferView" : 7, "byteOffset" : 0, "componentType" : 5126, "count" : 285, "type" : "VEC3", "max" : [1.041876196861267, 0.16032154858112335, 0.5133901238441467], "min" : [-0.4866757094860077, -0.16032174229621887, 0.10865074396133423], "name" : "POSITION"}, {"bufferView" : 7, "byteOffset" : 12, "componentType" : 5126, "count" : 285, "type" : "VEC3", "max" : [0.9975371956825256, 0.999547004699707, 0.9999347925186157], "min" : [-0.5419219732284546, -0.999547004699707, -0.999274492263794], "name" : "NORMAL"}, {"bufferView" : 7, "byteOffset" : 24, "componentType" : 5126, "count" : 285, "type" : "VEC2", "max" : [0, 1], "min" : [0, 1], "name" : "TEXCOORD_0"}, {"bufferView" : 0, "byteOffset" : 21732, "componentType" : 5123, "count" : 324, "type" : "SCALAR", "max" : [275], "min" : [0]}, {"bufferView" : 8, "byteOffset" : 0, "componentType" : 5126, "count" : 276, "type" : "VEC3", "max" : [0.35484910011291504, 0.3939538300037384, 0.3598964214324951], "min" : [-0.3548489809036255, -0.3157442808151245, 0.0777398943901062], "name" : "POSITION"}, {"bufferView" : 8, "byteOffset" : 12, "componentType" : 5126, "count" : 276, "type" : "VEC3", "max" : [0.9476523995399475, 0.9901409149169922, 1.0000044107437134], "min" : [-0.9476523995399475, -0.9901409149169922, 0.11310327053070068], "name" : "NORMAL"}, {"bufferView" : 8, "byteOffset" : 24, "componentType" : 5126, "count" : 276, "type" : "VEC2", "max" : [0.5, 1], "min" : [0, 0], "name" : "TEXCOORD_0"}, {"bufferView" : 0, "byteOffset" : 22380, "componentType" : 5123, "count" : 1728, "type" : "SCALAR", "max" : [1439], "min" : [0]}, {"bufferView" : 9, "byteOffset" : 0, "componentType" : 5126, "count" : 1440, "type" : "VEC3", "max" : [1.2873398065567017, 0.17602048814296722, 0.028890343382954597], "min" : [-1.6205644607543945, -0.1760202944278717, -0.2598206102848053], "name" : "POSITION"}, {"bufferView" : 9, "byteOffset" : 12, "componentType" : 5126, "count" : 1440, "type" : "VEC3", "max" : [0.9355424046516418, 0.9257514476776123, 0.9741945266723633], "min" : [-0.9355424046516418, -0.9257514476776123, -0.9741065502166748], "name" : "NORMAL"}, {"bufferView" : 9, "byteOffset" : 24, "componentType" : 5126, "count" : 1440, "type" : "VEC2", "max" : [1, 1], "min" : [0, 0], "name" : "TEXCOORD_0"}, {"bufferView" : 0, "byteOffset" : 25836, "componentType" : 5123, "count" : 294, "type" : "SCALAR", "max" : [250], "min" : [0]}, {"bufferView" : 10, "byteOffset" : 0, "componentType" : 5126, "count" : 251, "type" : "VEC3", "max" : [0.06923303008079529, 0.46089407801628113, 0.07279592007398605], "min" : [-0.06923303008079529, -0.21500003337860107, -0.07279592007398605], "name" : "POSITION"}, {"bufferView" : 10, "byteOffset" : 12, "componentType" : 5126, "count" : 251, "type" : "VEC3", "max" : [0.9323827624320984, 1.0000044107437134, 0.9803458452224731], "min" : [-0.9323827624320984, -0.8830975890159607, -0.9803458452224731], "name" : "NORMAL"}, {"bufferView" : 10, "byteOffset" : 24, "componentType" : 5126, "count" : 251, "type" : "VEC2", "max" : [1, 0.9900000095367432], "min" : [-7.450580596923828E-08, 0], "name" : "TEXCOORD_0"}, {"bufferView" : 0, "byteOffset" : 26424, "componentType" : 5123, "count" : 288, "type" : "SCALAR", "max" : [228], "min" : [0]}, {"bufferView" : 11, "byteOffset" : 0, "componentType" : 5126, "count" : 229, "type" : "VEC3", "max" : [1.0056966543197632, 0.10926827788352966, 0.8647140264511108], "min" : [0.2577211558818817, -0.10926812887191772, -0.03227236494421959], "name" : "POSITION"}, {"bufferView" : 11, "byteOffset" : 12, "componentType" : 5126, "count" : 229, "type" : "VEC3", "max" : [0.9604376554489136, 0.9867119193077087, 0.9946335554122925], "min" : [-0.9604108929634094, -0.9867119193077087, -0.9791382551193237], "name" : "NORMAL"}, {"bufferView" : 11, "byteOffset" : 24, "componentType" : 5126, "count" : 229, "type" : "VEC2", "max" : [0, 1], "min" : [0, 1], "name" : "TEXCOORD_0"}, {"bufferView" : 0, "byteOffset" : 27000, "componentType" : 5123, "count" : 960, "type" : "SCALAR", "max" : [759], "min" : [0]}, {"bufferView" : 12, "byteOffset" : 0, "componentType" : 5126, "count" : 760, "type" : "VEC3", "max" : [0.34739312529563904, 0.33273524045944214, 0.06918760389089584], "min" : [-0.3485913574695587, -0.36104243993759155, -0.06768254935741425], "name" : "POSITION"}, {"bufferView" : 12, "byteOffset" : 12, "componentType" : 5126, "count" : 760, "type" : "VEC3", "max" : [0.998921275138855, 0.9991447925567627, 0.9990941882133484], "min" : [-0.9980989098548889, -0.9982004761695862, -0.36630091071128845], "name" : "NORMAL"}, {"bufferView" : 12, "byteOffset" : 24, "componentType" : 5126, "count" : 760, "type" : "VEC2", "max" : [0.8750001192092896, 1], "min" : [0.1250000149011612, -1.1920928955078125E-07], "name" : "TEXCOORD_0"}], "asset" : {"generator" : "Aspose.3D 23.4.0", "version" : "2.0"}, "buffers" : [{"uri" : "data:application/octet-stream;base64,", "byteLength" : 491692}], "bufferViews" : [{"buffer" : 0, "byteOffset" : 0, "byteLength" : 28920, "target" : 34963}, {"buffer" : 0, "byteOffset" : 28924, "byteLength" : 182784, "byteStride" : 32, "target" : 34962}, {"buffer" : 0, "byteOffset" : 211712, "byteLength" : 36864, "byteStride" : 32, "target" : 34962}, {"buffer" : 0, "byteOffset" : 248580, "byteLength" : 15360, "byteStride" : 32, "target" : 34962}, {"buffer" : 0, "byteOffset" : 263944, "byteLength" : 46656, "byteStride" : 32, "target" : 34962}, {"buffer" : 0, "byteOffset" : 310604, "byteLength" : 12672, "byteStride" : 32, "target" : 34962}, {"buffer" : 0, "byteOffset" : 323280, "byteLength" : 41856, "byteStride" : 32, "target" : 34962}, {"buffer" : 0, "byteOffset" : 365140, "byteLength" : 11520, "byteStride" : 32, "target" : 34962}, {"buffer" : 0, "byteOffset" : 376664, "byteLength" : 10368, "byteStride" : 32, "target" : 34962}, {"buffer" : 0, "byteOffset" : 387036, "byteLength" : 55296, "byteStride" : 32, "target" : 34962}, {"buffer" : 0, "byteOffset" : 442336, "byteLength" : 9408, "byteStride" : 32, "target" : 34962}, {"buffer" : 0, "byteOffset" : 451748, "byteLength" : 9216, "byteStride" : 32, "target" : 34962}, {"buffer" : 0, "byteOffset" : 460968, "byteLength" : 30720, "byteStride" : 32, "target" : 34962}], "materials" : [{"name" : "metalic_white", "pbrMetallicRoughness" : {"baseColorFactor" : [1, 1, 1, 1], "metallicFactor" : 0, "roughnessFactor" : 0.44999998807907104}, "emissiveFactor" : [0, 0, 0], "alphaMode" : "OPAQUE", "doubleSided" : true}, {"name" : "metalic_orange", "extensions" : {"KHR_materials_clearcoat" : {"clearcoatFactor" : 0.699999988079071, "clearcoatRoughnessFactor" : 0.029999999329447746}, "KHR_materials_specular" : {"specularColorFactor" : [2.371357614441398, 2.371357614441398, 2.371357614441398]}, "KHR_materials_ior" : {"ior" : 1.4500000476837158}}, "pbrMetallicRoughness" : {"baseColorFactor" : [1, 1, 1, 1], "metallicFactor" : 0.75, "roughnessFactor" : 0.5}, "emissiveFactor" : [0, 0, 0], "alphaMode" : "OPAQUE", "doubleSided" : true}, {"name" : "metalic_red", "extensions" : {"KHR_materials_specular" : {"specularColorFactor" : [0.948543059910952, 0.948543059910952, 0.948543059910952]}, "KHR_materials_ior" : {"ior" : 1.4500000476837158}}, "pbrMetallicRoughness" : {"baseColorFactor" : [1, 1, 1, 1], "metallicFactor" : 0, "roughnessFactor" : 0.6000000238418579}, "emissiveFactor" : [0, 0, 0], "alphaMode" : "OPAQUE", "doubleSided" : true}, {"name" : "metalic_grey", "extensions" : {"KHR_materials_clearcoat" : {"clearcoatFactor" : 1, "clearcoatRoughnessFactor" : 0.029999999329447746}}, "pbrMetallicRoughness" : {"baseColorFactor" : [1, 1, 1, 1], "metallicFactor" : 0.5, "roughnessFactor" : 0.25}, "emissiveFactor" : [0, 0, 0], "alphaMode" : "OPAQUE", "doubleSided" : true}, {"name" : "metalic_orange", "extensions" : {"KHR_materials_clearcoat" : {"clearcoatFactor" : 0.699999988079071, "clearcoatRoughnessFactor" : 0.029999999329447746}, "KHR_materials_specular" : {"specularColorFactor" : [2.371357614441398, 2.371357614441398, 2.371357614441398]}, "KHR_materials_ior" : {"ior" : 1.4500000476837158}}, "pbrMetallicRoughness" : {"baseColorFactor" : [1, 1, 1, 1], "metallicFactor" : 0.75, "roughnessFactor" : 0.5}, "emissiveFactor" : [0, 0, 0], "alphaMode" : "OPAQUE", "doubleSided" : true}, {"name" : "metalic_orange", "extensions" : {"KHR_materials_clearcoat" : {"clearcoatFactor" : 0.699999988079071, "clearcoatRoughnessFactor" : 0.029999999329447746}, "KHR_materials_specular" : {"specularColorFactor" : [2.371357614441398, 2.371357614441398, 2.371357614441398]}, "KHR_materials_ior" : {"ior" : 1.4500000476837158}}, "pbrMetallicRoughness" : {"baseColorFactor" : [1, 1, 1, 1], "metallicFactor" : 0.75, "roughnessFactor" : 0.5}, "emissiveFactor" : [0, 0, 0], "alphaMode" : "OPAQUE", "doubleSided" : true}, {"name" : "metalic_orange", "extensions" : {"KHR_materials_clearcoat" : {"clearcoatFactor" : 0.699999988079071, "clearcoatRoughnessFactor" : 0.029999999329447746}, "KHR_materials_specular" : {"specularColorFactor" : [2.371357614441398, 2.371357614441398, 2.371357614441398]}, "KHR_materials_ior" : {"ior" : 1.4500000476837158}}, "pbrMetallicRoughness" : {"baseColorFactor" : [1, 1, 1, 1], "metallicFactor" : 0.75, "roughnessFactor" : 0.5}, "emissiveFactor" : [0, 0, 0], "alphaMode" : "OPAQUE", "doubleSided" : true}, {"name" : "glass", "extensions" : {"KHR_materials_specular" : {"specularColorFactor" : [2.371357614441398, 2.371357614441398, 2.371357614441398]}, "KHR_materials_ior" : {"ior" : 1.4500000476837158}}, "pbrMetallicRoughness" : {"baseColorFactor" : [1, 1, 1, 1], "metallicFactor" : 0.5, "roughnessFactor" : 0.20000000298023224}, "emissiveFactor" : [0, 0, 0], "alphaMode" : "OPAQUE", "doubleSided" : true}, {"name" : "metalic_grey", "extensions" : {"KHR_materials_clearcoat" : {"clearcoatFactor" : 1, "clearcoatRoughnessFactor" : 0.029999999329447746}}, "pbrMetallicRoughness" : {"baseColorFactor" : [1, 1, 1, 1], "metallicFactor" : 0.5, "roughnessFactor" : 0.25}, "emissiveFactor" : [0, 0, 0], "alphaMode" : "OPAQUE", "doubleSided" : true}, {"name" : "metalic_grey", "extensions" : {"KHR_materials_clearcoat" : {"clearcoatFactor" : 1, "clearcoatRoughnessFactor" : 0.029999999329447746}}, "pbrMetallicRoughness" : {"baseColorFactor" : [1, 1, 1, 1], "metallicFactor" : 0.5, "roughnessFactor" : 0.25}, "emissiveFactor" : [0, 0, 0], "alphaMode" : "OPAQUE", "doubleSided" : true}, {"name" : "metalic_grey", "extensions" : {"KHR_materials_clearcoat" : {"clearcoatFactor" : 1, "clearcoatRoughnessFactor" : 0.029999999329447746}}, "pbrMetallicRoughness" : {"baseColorFactor" : [1, 1, 1, 1], "metallicFactor" : 0.5, "roughnessFactor" : 0.25}, "emissiveFactor" : [0, 0, 0], "alphaMode" : "OPAQUE", "doubleSided" : true}, {"name" : "metalic_grey", "extensions" : {"KHR_materials_clearcoat" : {"clearcoatFactor" : 1, "clearcoatRoughnessFactor" : 0.029999999329447746}}, "pbrMetallicRoughness" : {"baseColorFactor" : [1, 1, 1, 1], "metallicFactor" : 0.5, "roughnessFactor" : 0.25}, "emissiveFactor" : [0, 0, 0], "alphaMode" : "OPAQUE", "doubleSided" : true}], "meshes" : [{"primitives" : [{"attributes" : {"POSITION" : 1, "NORMAL" : 2, "TEXCOORD_0" : 3}, "indices" : 0, "material" : 0, "mode" : 4}, {"attributes" : {"POSITION" : 5, "NORMAL" : 6, "TEXCOORD_0" : 7}, "indices" : 4, "material" : 1, "mode" : 4}, {"attributes" : {"POSITION" : 9, "NORMAL" : 10, "TEXCOORD_0" : 11}, "indices" : 8, "material" : 2, "mode" : 4}, {"attributes" : {"POSITION" : 13, "NORMAL" : 14, "TEXCOORD_0" : 15}, "indices" : 12, "material" : 3, "mode" : 4}]}, {"primitives" : [{"attributes" : {"POSITION" : 17, "NORMAL" : 18, "TEXCOORD_0" : 19}, "indices" : 16, "material" : 4, "mode" : 4}]}, {"primitives" : [{"attributes" : {"POSITION" : 21, "NORMAL" : 22, "TEXCOORD_0" : 23}, "indices" : 20, "material" : 5, "mode" : 4}]}, {"primitives" : [{"attributes" : {"POSITION" : 25, "NORMAL" : 26, "TEXCOORD_0" : 27}, "indices" : 24, "material" : 6, "mode" : 4}]}, {"primitives" : [{"attributes" : {"POSITION" : 29, "NORMAL" : 30, "TEXCOORD_0" : 31}, "indices" : 28, "material" : 7, "mode" : 4}]}, {"primitives" : [{"attributes" : {"POSITION" : 33, "NORMAL" : 34, "TEXCOORD_0" : 35}, "indices" : 32, "material" : 8, "mode" : 4}]}, {"primitives" : [{"attributes" : {"POSITION" : 37, "NORMAL" : 38, "TEXCOORD_0" : 39}, "indices" : 36, "material" : 9, "mode" : 4}]}, {"primitives" : [{"attributes" : {"POSITION" : 41, "NORMAL" : 42, "TEXCOORD_0" : 43}, "indices" : 40, "material" : 10, "mode" : 4}]}, {"primitives" : [{"attributes" : {"POSITION" : 45, "NORMAL" : 46, "TEXCOORD_0" : 47}, "indices" : 44, "material" : 11, "mode" : 4}]}], "nodes" : [{"matrix" : [1, 0, 0, 0, 0, -1.3435885648505064E-07, 1.0000001343588565, 0, 0, -1.0000001343588565, -1.3435885648505064E-07, 0, 0, 1.830702304840088, 0, 1], "mesh" : 0, "name" : "body"}, {"matrix" : [0.8702800430794184, -0.492557298522172, 0, 0, 0.492557298522172, 0.8702800430794184, 0, 0, 0, 0, 0.5089594125747681, 0, 0.6622483730316162, 1.7958471775054932, 0, 1], "mesh" : 1, "name" : "wing_2"}, {"matrix" : [1, 0, 0, 0, 0, -1.5014127409478898E-07, 1.1174648117394796, 0, 0, -1.0000001343588565, -1.3435885648505064E-07, 0, 0.1666124016046524, 0.8566606640815735, 0, 1], "mesh" : 2, "name" : "wing_1"}, {"matrix" : [-1.3435885648505064E-07, -1.0000001343588565, 0, 0, 1.0000001343588565, -1.3435885648505064E-07, 0, 0, 0, 0, 1, 0, 0, 1.0192737579345703, 0.2927834987640381, 1], "mesh" : 3, "name" : "wing_3"}, {"matrix" : [0.7653552889823914, 0, 0, 0, 0, 0.7528404967030046, -0.13784114658034385, 0, 0, 0.135840064060408, 0.7419112785731038, 0, 0, 2.211698055267334, 0.4769234359264374, 1], "mesh" : 4, "name" : "glass"}, {"matrix" : [1, 0, 0, 0, 0, -1.5014127409478898E-07, 1.1174648117394796, 0, 0, -1.0000001343588565, -1.3435885648505064E-07, 0, 0.1666124016046524, 0.8566606640815735, 0, 1], "mesh" : 5, "name" : "line"}, {"matrix" : [1, 0, 0, 0, 0, 1, 0, 0, 0, 0, 1, 0, 0, 3.550906181335449, 0, 1], "mesh" : 6, "name" : "arrow"}, {"matrix" : [1, 0, 0, 0, 0, -1.5014127409478898E-07, 1.1174648117394796, 0, 0, -1.0000001343588565, -1.3435885648505064E-07, 0, 0.1666124016046524, 0.8566606640815735, 0, 1], "mesh" : 7, "name" : "wing_down"}, {"matrix" : [1, 0, 0, 0, 0, 1, 0, 0, 0, 0, 1, 0, 0, 2.2968554496765137, 0.6540237665176392, 1], "mesh" : 8, "name" : "vida"}], "scene" : 0, "scenes" : [{"nodes" : [0, 1, 2, 3, 4, 5, 6, 7, 8]}]}