{
  "asset": {
    "version": "2.0",
    "generator": "THREE.GLTFExporter"
  },
  "scenes": [
    {
      "name": "Scene",
      "nodes": [
        5,
        6
      ]
    }
  ],
  "scene": 0,
  "nodes": [
    {
      "matrix": [
        0.9170815503729437,
        -0.20397734941142043,
        0.34257068014155756,
        0,
        0.2907685008615378,
        0.9300532223853055,
        -0.22462119765828745,
        0,
        -0.2727913284404252,
        0.3056047192989677,
        0.9122448392125369,
        0,
        -1.9118768294737896,
        -4.42994971938065,
        0.27604049150741045,
        1
      ],
      "name": "Object_4",
      "extras": {
        "name": "Object_4"
      },
      "mesh": 0
    },
    {
      "name": "ToyRocket_0",
      "extras": {
        "name": "ToyRocket_0"
      },
      "children": [
        0
      ]
    },
    {
      "matrix": [
        1,
        0,
        0,
        0,
        0,
        2.220446049250313e-16,
        1,
        0,
        0,
        -1,
        2.220446049250313e-16,
        0,
        0,
        0,
        0,
        1
      ],
      "name": "GLTF_SceneRootNode",
      "extras": {
        "name": "GLTF_SceneRootNode"
      },
      "children": [
        1
      ]
    },
    {
      "name": "root",
      "extras": {
        "name": "root"
      },
      "children": [
        2
      ]
    },
    {
      "matrix": [
        0.032992348074913025,
        0,
        0,
        0,
        0,
        7.32577289384318e-18,
        -0.032992348074913025,
        0,
        0,
        0.032992348074913025,
        7.32577289384318e-18,
        0,
        0,
        0,
        0,
        1
      ],
      "name": "Sketchfab_model",
      "extras": {
        "name": "Sketchfab_model"
      },
      "children": [
        3
      ]
    },
    {
      "name": "Sketchfab_Scene",
      "children": [
        4
      ]
    },
    {
      "matrix": [
        1,
        0,
        0,
        0,
        0,
        1,
        0,
        0,
        0,
        0,
        1,
        0,
        5,
        10,
        7.5,
        1
      ],
      "name": "DirectionalLight",
      "extensions": {
        "KHR_lights_punctual": {
          "light": 0
        }
      }
    }
  ],
  "bufferViews": [
    {
      "buffer": 0,
      "byteOffset": 0,
      "byteLength": 565428,
      "target": 34962,
      "byteStride": 12
    },
    {
      "buffer": 0,
      "byteOffset": 565428,
      "byteLength": 565428,
      "target": 34962,
      "byteStride": 12
    },
    {
      "buffer": 0,
      "byteOffset": 1130856,
      "byteLength": 376952,
      "target": 34962,
      "byteStride": 8
    },
    {
      "buffer": 0,
      "byteOffset": 1507808,
      "byteLength": 886656,
      "target": 34963
    }
  ],
  "buffers": [
    {
      "byteLength": 2394464,
      "uri": "data:application/octet-stream;base64,"
    }
  ],
  "accessors": [
    {
      "bufferView": 0,
      "componentType": 5126,
      "count": 47119,
      "max": [
        1,
        1,
        1
      ],
      "min": [
        -1,
        -1,
        -1
      ],
      "type": "VEC3"
    },
    {
      "bufferView": 1,
      "componentType": 5126,
      "count": 47119,
      "max": [
        2.3495004177093506,
        10.504610061645508,
        2.2416818141937256
      ],
      "min": [
        -2.3495004177093506,
        -0.013930222019553185,
        -2.2416818141937256
      ],
      "type": "VEC3"
    },
    {
      "bufferView": 2,
      "componentType": 5126,
      "count": 47119,
      "max": [
        0.972140371799469,
        0.9936639666557312
      ],
      "min": [
        0.019065679982304573,
        0.07393568754196167
      ],
      "type": "VEC2"
    },
    {
      "bufferView": 3,
      "componentType": 5125,
      "count": 221664,
      "max": [
        47118
      ],
      "min": [
        0
      ],
      "type": "SCALAR"
    }
  ],
  "materials": [
    {
      "pbrMetallicRoughness": {
        "metallicFactor": 0,
        "roughnessFactor": 0,
        "metallicRoughnessTexture": {
          "index": 0,
          "channel": 0
        },
        "baseColorTexture": {
          "index": 1,
          "texCoord": 0
        }
      },
      "doubleSided": true,
      "name": "Material"
    }
  ],
  "textures": [
    {
      "sampler": 0,
      "source": 0,
      "name": "textures/Material_metallicRoughness.png"
    },
    {
      "sampler": 1,
      "source": 1,
      "name": "textures/Material_baseColor.png"
    }
  ],
  "samplers": [
    {
      "magFilter": 9729,
      "minFilter": 9987,
      "wrapS": 10497,
      "wrapT": 10497
    },
    {
      "magFilter": 9729,
      "minFilter": 9987,
      "wrapS": 10497,
      "wrapT": 10497
    }
  ],
  "images": [
    {
      "mimeType": "image/png",
      "uri": "data:image/png;base64,"
    },
    {
      "mimeType": "image/png",
      "uri": "data:image/png;base64,"
    }
  ],
  "meshes": [
    {
      "primitives": [
        {
          "mode": 4,
          "attributes": {
            "NORMAL": 0,
            "POSITION": 1,
            "TEXCOORD_0": 2
          },
          "indices": 3,
          "material": 0
        }
      ]
    }
  ],
  "extensions": {
    "KHR_lights_punctual": {
      "lights": [
        {
          "name": "DirectionalLight",
          "color": [
            1,
            1,
            1
          ],
          "intensity": 1,
          "type": "directional"
        }
      ]
    }
  },
  "extensionsUsed": [
    "KHR_lights_punctual"
  ]
}