{
  "asset": {
    "version": "2.0",
    "generator": "THREE.GLTFExporter"
  },
  "scenes": [
    {
      "name": "Scene",
      "nodes": [
        0,
        1,
        2,
        17
      ]
    }
  ],
  "scene": 0,
  "nodes": [
    {
      "matrix": [
        0.7036013200690076,
        0,
        0,
        0,
        0,
        0.4280081588190488,
        0,
        0,
        0,
        0,
        1,
        0,
        -0.07498603889057391,
        0.08928521551976927,
        -0.116,
        1
      ],
      "name": "Plane",
      "mesh": 0
    },
    {
      "matrix": [
        1,
        0,
        0,
        0,
        0,
        1,
        0,
        0,
        0,
        0,
        1,
        0,
        5,
        10,
        7.5,
        1
      ],
      "name": "DirectionalLight",
      "extensions": {
        "KHR_lights_punctual": {
          "light": 0
        }
      }
    },
    {
      "matrix": [
        0.704,
        0,
        0,
        0,
        0,
        0.428,
        0,
        0,
        0,
        0,
        1,
        0,
        -0.07804945138437894,
        0.08470623497310129,
        -0.117,
        1
      ],
      "name": "Plane",
      "mesh": 1
    },
    {
      "name": "defaultMaterial",
      "extras": {
        "name": "defaultMaterial"
      },
      "mesh": 2
    },
    {
      "name": "Mouse_Wheel_Low",
      "extras": {
        "name": "Mouse_Wheel_Low"
      },
      "children": [
        3
      ]
    },
    {
      "name": "defaultMaterial_1",
      "extras": {
        "name": "defaultMaterial"
      },
      "mesh": 3
    },
    {
      "name": "Mouse_Low",
      "extras": {
        "name": "Mouse_Low"
      },
      "children": [
        5
      ]
    },
    {
      "name": "defaultMaterial_2",
      "extras": {
        "name": "defaultMaterial"
      },
      "mesh": 4
    },
    {
      "name": "Base_Low",
      "extras": {
        "name": "Base_Low"
      },
      "children": [
        7
      ]
    },
    {
      "name": "defaultMaterial_3",
      "extras": {
        "name": "defaultMaterial"
      },
      "mesh": 5
    },
    {
      "name": "Vert_Low",
      "extras": {
        "name": "Vert_Low"
      },
      "children": [
        9
      ]
    },
    {
      "name": "defaultMaterial_4",
      "extras": {
        "name": "defaultMaterial"
      },
      "mesh": 6
    },
    {
      "name": "Computer_Low",
      "extras": {
        "name": "Computer_Low"
      },
      "children": [
        11
      ]
    },
    {
      "name": "defaultMaterial_5",
      "extras": {
        "name": "defaultMaterial"
      },
      "mesh": 7
    },
    {
      "name": "Key_Board_Low",
      "extras": {
        "name": "Key_Board_Low"
      },
      "children": [
        13
      ]
    },
    {
      "matrix": [
        1,
        0,
        0,
        0,
        0,
        -4.3711390285139367e-8,
        0.9999999999999991,
        0,
        0,
        -0.9999999999999991,
        -4.3711390285139367e-8,
        0,
        0,
        0,
        0,
        1
      ],
      "name": "Collada_visual_scene_group",
      "extras": {
        "name": "Collada visual scene group"
      },
      "children": [
        4,
        6,
        8,
        10,
        12,
        14
      ]
    },
    {
      "matrix": [
        0.501150906085968,
        0,
        0,
        0,
        0,
        1.1127785494968024e-16,
        -0.501150906085968,
        0,
        0,
        0.501150906085968,
        1.1127785494968024e-16,
        0,
        0,
        0,
        0,
        1
      ],
      "name": "Sketchfab_model",
      "extras": {
        "name": "Sketchfab_model"
      },
      "children": [
        15
      ]
    },
    {
      "name": "Sketchfab_Scene",
      "children": [
        16
      ]
    }
  ],
  "bufferViews": [
    {
      "buffer": 0,
      "byteOffset": 0,
      "byteLength": 48,
      "target": 34962,
      "byteStride": 12
    },
    {
      "buffer": 0,
      "byteOffset": 48,
      "byteLength": 48,
      "target": 34962,
      "byteStride": 12
    },
    {
      "buffer": 0,
      "byteOffset": 96,
      "byteLength": 32,
      "target": 34962,
      "byteStride": 8
    },
    {
      "buffer": 0,
      "byteOffset": 128,
      "byteLength": 12,
      "target": 34963
    },
    {
      "buffer": 0,
      "byteOffset": 140,
      "byteLength": 48,
      "target": 34962,
      "byteStride": 12
    },
    {
      "buffer": 0,
      "byteOffset": 188,
      "byteLength": 48,
      "target": 34962,
      "byteStride": 12
    },
    {
      "buffer": 0,
      "byteOffset": 236,
      "byteLength": 32,
      "target": 34962,
      "byteStride": 8
    },
    {
      "buffer": 0,
      "byteOffset": 268,
      "byteLength": 12,
      "target": 34963
    },
    {
      "buffer": 0,
      "byteOffset": 280,
      "byteLength": 984,
      "target": 34962,
      "byteStride": 12
    },
    {
      "buffer": 0,
      "byteOffset": 1264,
      "byteLength": 984,
      "target": 34962,
      "byteStride": 12
    },
    {
      "buffer": 0,
      "byteOffset": 2248,
      "byteLength": 1312,
      "target": 34962,
      "byteStride": 16
    },
    {
      "buffer": 0,
      "byteOffset": 3560,
      "byteLength": 656,
      "target": 34962,
      "byteStride": 8
    },
    {
      "buffer": 0,
      "byteOffset": 4216,
      "byteLength": 864,
      "target": 34963
    },
    {
      "buffer": 0,
      "byteOffset": 5080,
      "byteLength": 1920,
      "target": 34962,
      "byteStride": 12
    },
    {
      "buffer": 0,
      "byteOffset": 7000,
      "byteLength": 1920,
      "target": 34962,
      "byteStride": 12
    },
    {
      "buffer": 0,
      "byteOffset": 8920,
      "byteLength": 2560,
      "target": 34962,
      "byteStride": 16
    },
    {
      "buffer": 0,
      "byteOffset": 11480,
      "byteLength": 1280,
      "target": 34962,
      "byteStride": 8
    },
    {
      "buffer": 0,
      "byteOffset": 12760,
      "byteLength": 2040,
      "target": 34963
    },
    {
      "buffer": 0,
      "byteOffset": 14800,
      "byteLength": 768,
      "target": 34962,
      "byteStride": 12
    },
    {
      "buffer": 0,
      "byteOffset": 15568,
      "byteLength": 768,
      "target": 34962,
      "byteStride": 12
    },
    {
      "buffer": 0,
      "byteOffset": 16336,
      "byteLength": 1024,
      "target": 34962,
      "byteStride": 16
    },
    {
      "buffer": 0,
      "byteOffset": 17360,
      "byteLength": 512,
      "target": 34962,
      "byteStride": 8
    },
    {
      "buffer": 0,
      "byteOffset": 17872,
      "byteLength": 360,
      "target": 34963
    },
    {
      "buffer": 0,
      "byteOffset": 18232,
      "byteLength": 1380,
      "target": 34962,
      "byteStride": 12
    },
    {
      "buffer": 0,
      "byteOffset": 19612,
      "byteLength": 1380,
      "target": 34962,
      "byteStride": 12
    },
    {
      "buffer": 0,
      "byteOffset": 20992,
      "byteLength": 1840,
      "target": 34962,
      "byteStride": 16
    },
    {
      "buffer": 0,
      "byteOffset": 22832,
      "byteLength": 920,
      "target": 34962,
      "byteStride": 8
    },
    {
      "buffer": 0,
      "byteOffset": 23752,
      "byteLength": 1320,
      "target": 34963
    },
    {
      "buffer": 0,
      "byteOffset": 25072,
      "byteLength": 1776,
      "target": 34962,
      "byteStride": 12
    },
    {
      "buffer": 0,
      "byteOffset": 26848,
      "byteLength": 1776,
      "target": 34962,
      "byteStride": 12
    },
    {
      "buffer": 0,
      "byteOffset": 28624,
      "byteLength": 2368,
      "target": 34962,
      "byteStride": 16
    },
    {
      "buffer": 0,
      "byteOffset": 30992,
      "byteLength": 1184,
      "target": 34962,
      "byteStride": 8
    },
    {
      "buffer": 0,
      "byteOffset": 32176,
      "byteLength": 1200,
      "target": 34963
    },
    {
      "buffer": 0,
      "byteOffset": 33376,
      "byteLength": 4536,
      "target": 34962,
      "byteStride": 12
    },
    {
      "buffer": 0,
      "byteOffset": 37912,
      "byteLength": 4536,
      "target": 34962,
      "byteStride": 12
    },
    {
      "buffer": 0,
      "byteOffset": 42448,
      "byteLength": 6048,
      "target": 34962,
      "byteStride": 16
    },
    {
      "buffer": 0,
      "byteOffset": 48496,
      "byteLength": 3024,
      "target": 34962,
      "byteStride": 8
    },
    {
      "buffer": 0,
      "byteOffset": 51520,
      "byteLength": 3744,
      "target": 34963
    }
  ],
  "buffers": [
    {
      "byteLength": 55264,
      "uri": "data:application/octet-stream;base64,"
    }
  ],
  "accessors": [
    {
      "bufferView": 0,
      "componentType": 5126,
      "count": 4,
      "max": [
        0.5,
        0.5,
        0
      ],
      "min": [
        -0.5,
        -0.5,
        0
      ],
      "type": "VEC3"
    },
    {
      "bufferView": 1,
      "componentType": 5126,
      "count": 4,
      "max": [
        0,
        0,
        1
      ],
      "min": [
        0,
        0,
        1
      ],
      "type": "VEC3"
    },
    {
      "bufferView": 2,
      "componentType": 5126,
      "count": 4,
      "max": [
        1,
        1
      ],
      "min": [
        0,
        0
      ],
      "type": "VEC2"
    },
    {
      "bufferView": 3,
      "componentType": 5123,
      "count": 6,
      "max": [
        3
      ],
      "min": [
        0
      ],
      "type": "SCALAR"
    },
    {
      "bufferView": 4,
      "componentType": 5126,
      "count": 4,
      "max": [
        0.5,
        0.5,
        0
      ],
      "min": [
        -0.5,
        -0.5,
        0
      ],
      "type": "VEC3"
    },
    {
      "bufferView": 5,
      "componentType": 5126,
      "count": 4,
      "max": [
        0,
        0,
        1
      ],
      "min": [
        0,
        0,
        1
      ],
      "type": "VEC3"
    },
    {
      "bufferView": 6,
      "componentType": 5126,
      "count": 4,
      "max": [
        1,
        1
      ],
      "min": [
        0,
        0
      ],
      "type": "VEC2"
    },
    {
      "bufferView": 7,
      "componentType": 5123,
      "count": 6,
      "max": [
        3
      ],
      "min": [
        0
      ],
      "type": "SCALAR"
    },
    {
      "bufferView": 8,
      "componentType": 5126,
      "count": 82,
      "max": [
        0.9994773864746094,
        0.9842931032180786,
        0.9848076701164246
      ],
      "min": [
        -0.9994772672653198,
        -0.03232860565185547,
        -0.9848079085350037
      ],
      "type": "VEC3"
    },
    {
      "bufferView": 9,
      "componentType": 5126,
      "count": 82,
      "max": [
        0.9027360081672668,
        -0.512565016746521,
        0.1550620049238205
      ],
      "min": [
        0.8878120183944702,
        -0.5363460183143616,
        0.10752800107002258
      ],
      "type": "VEC3"
    },
    {
      "bufferView": 10,
      "componentType": 5126,
      "count": 82,
      "max": [
        0.03232836350798607,
        0.9994701743125916,
        0.6787946820259094,
        1
      ],
      "min": [
        -0.9997723698616028,
        -0.9994697570800781,
        -0.6848254203796387,
        1
      ],
      "type": "VEC4"
    },
    {
      "bufferView": 11,
      "componentType": 5126,
      "count": 82,
      "max": [
        0.5666229724884033,
        0.04304580017924309
      ],
      "min": [
        0.547298014163971,
        0.01942629925906658
      ],
      "type": "VEC2"
    },
    {
      "bufferView": 12,
      "componentType": 5125,
      "count": 216,
      "max": [
        81
      ],
      "min": [
        0
      ],
      "type": "SCALAR"
    },
    {
      "bufferView": 13,
      "componentType": 5126,
      "count": 160,
      "max": [
        0.9986551403999329,
        1,
        1
      ],
      "min": [
        -0.9986551403999329,
        -3.83037871642955e-7,
        -1
      ],
      "type": "VEC3"
    },
    {
      "bufferView": 14,
      "componentType": 5126,
      "count": 160,
      "max": [
        1,
        -0.5336570143699646,
        0.38244399428367615
      ],
      "min": [
        0.7905480265617371,
        -0.6214720010757446,
        0.06492669880390167
      ],
      "type": "VEC3"
    },
    {
      "bufferView": 15,
      "componentType": 5126,
      "count": 160,
      "max": [
        0.9837031960487366,
        0.5205352902412415,
        0.31791451573371887,
        1
      ],
      "min": [
        -1,
        -0.9999570250511169,
        -0.9997720718383789,
        1
      ],
      "type": "VEC4"
    },
    {
      "bufferView": 16,
      "componentType": 5126,
      "count": 160,
      "max": [
        0.8737239837646484,
        0.8012650012969971
      ],
      "min": [
        0.5378720164299011,
        0.5143060088157654
      ],
      "type": "VEC2"
    },
    {
      "bufferView": 17,
      "componentType": 5125,
      "count": 510,
      "max": [
        159
      ],
      "min": [
        0
      ],
      "type": "SCALAR"
    },
    {
      "bufferView": 18,
      "componentType": 5126,
      "count": 64,
      "max": [
        1,
        1,
        1
      ],
      "min": [
        -1,
        -6.123230292458899e-17,
        -1
      ],
      "type": "VEC3"
    },
    {
      "bufferView": 19,
      "componentType": 5126,
      "count": 64,
      "max": [
        0.1665789932012558,
        -0.5931910276412964,
        -0.01559399999678135
      ],
      "min": [
        -0.46845701336860657,
        -0.6527259945869446,
        -0.6506289839744568
      ],
      "type": "VEC3"
    },
    {
      "bufferView": 20,
      "componentType": 5126,
      "count": 64,
      "max": [
        0.5740523338317871,
        1,
        1,
        1
      ],
      "min": [
        -0.7067898511886597,
        -1,
        -6.123230954203389e-17,
        1
      ],
      "type": "VEC4"
    },
    {
      "bufferView": 21,
      "componentType": 5126,
      "count": 64,
      "max": [
        0.7508149743080139,
        0.8197510242462158
      ],
      "min": [
        0.5048800110816956,
        0.5708640217781067
      ],
      "type": "VEC2"
    },
    {
      "bufferView": 22,
      "componentType": 5125,
      "count": 90,
      "max": [
        63
      ],
      "min": [
        0
      ],
      "type": "SCALAR"
    },
    {
      "bufferView": 23,
      "componentType": 5126,
      "count": 115,
      "max": [
        1,
        1,
        0.9510565400123596
      ],
      "min": [
        -1,
        -1,
        -0.9510565400123596
      ],
      "type": "VEC3"
    },
    {
      "bufferView": 24,
      "componentType": 5126,
      "count": 115,
      "max": [
        -0.09283439815044403,
        0.35936200618743896,
        -0.432561993598938
      ],
      "min": [
        -0.21755599975585938,
        -0.6154429912567139,
        -0.5511789917945862
      ],
      "type": "VEC3"
    },
    {
      "bufferView": 25,
      "componentType": 5126,
      "count": 115,
      "max": [
        0.9510565996170044,
        0.7058010697364807,
        1,
        1
      ],
      "min": [
        -1,
        -1,
        -1,
        1
      ],
      "type": "VEC4"
    },
    {
      "bufferView": 26,
      "componentType": 5126,
      "count": 115,
      "max": [
        0.9879999756813049,
        0.9474459886550903
      ],
      "min": [
        0.009999999776482582,
        0.009999999776482582
      ],
      "type": "VEC2"
    },
    {
      "bufferView": 27,
      "componentType": 5125,
      "count": 330,
      "max": [
        114
      ],
      "min": [
        0
      ],
      "type": "SCALAR"
    },
    {
      "bufferView": 28,
      "componentType": 5126,
      "count": 148,
      "max": [
        1,
        1,
        1
      ],
      "min": [
        -1,
        -1,
        -1
      ],
      "type": "VEC3"
    },
    {
      "bufferView": 29,
      "componentType": 5126,
      "count": 148,
      "max": [
        0.5989099740982056,
        0.6527259945869446,
        -0.23411400616168976
      ],
      "min": [
        -0.9093000292778015,
        -0.2998270094394684,
        -0.432561993598938
      ],
      "type": "VEC3"
    },
    {
      "bufferView": 30,
      "componentType": 5126,
      "count": 148,
      "max": [
        1,
        1,
        0.9999997615814209,
        1
      ],
      "min": [
        -1,
        -0.7053747773170471,
        -0.9999998211860657,
        1
      ],
      "type": "VEC4"
    },
    {
      "bufferView": 31,
      "componentType": 5126,
      "count": 148,
      "max": [
        0.9900000095367432,
        0.7534279823303223
      ],
      "min": [
        0.009999999776482582,
        0.009999999776482582
      ],
      "type": "VEC2"
    },
    {
      "bufferView": 32,
      "componentType": 5125,
      "count": 300,
      "max": [
        147
      ],
      "min": [
        0
      ],
      "type": "SCALAR"
    },
    {
      "bufferView": 33,
      "componentType": 5126,
      "count": 378,
      "max": [
        1,
        0.9965387582778931,
        1
      ],
      "min": [
        -1,
        -0.08313047885894775,
        -1
      ],
      "type": "VEC3"
    },
    {
      "bufferView": 34,
      "componentType": 5126,
      "count": 378,
      "max": [
        0.42882999777793884,
        -0.5208690166473389,
        0.6506289839744568
      ],
      "min": [
        -1,
        -0.6316800117492676,
        0.1743530035018921
      ],
      "type": "VEC3"
    },
    {
      "bufferView": 35,
      "componentType": 5126,
      "count": 378,
      "max": [
        0.9999939203262329,
        0.9997236132621765,
        0.9971510767936707,
        1
      ],
      "min": [
        -0.9999881982803345,
        -0.997329592704773,
        -0.9996219277381897,
        1
      ],
      "type": "VEC4"
    },
    {
      "bufferView": 36,
      "componentType": 5126,
      "count": 378,
      "max": [
        0.9878209829330444,
        0.9845309853553772
      ],
      "min": [
        0.009999999776482582,
        0.01942629925906658
      ],
      "type": "VEC2"
    },
    {
      "bufferView": 37,
      "componentType": 5125,
      "count": 936,
      "max": [
        377
      ],
      "min": [
        0
      ],
      "type": "SCALAR"
    }
  ],
  "materials": [
    {
      "pbrMetallicRoughness": {
        "metallicFactor": 0,
        "roughnessFactor": 1,
        "baseColorTexture": {
          "index": 0,
          "texCoord": 0
        }
      },
      "emissiveTexture": {
        "index": 1,
        "texCoord": 0
      },
      "alphaMode": "BLEND"
    },
    {
      "pbrMetallicRoughness": {
        "metallicFactor": 0,
        "roughnessFactor": 1,
        "baseColorTexture": {
          "index": 2,
          "texCoord": 0
        }
      }
    },
    {
      "pbrMetallicRoughness": {
        "metallicFactor": 1,
        "roughnessFactor": 1,
        "metallicRoughnessTexture": {
          "index": 3,
          "channel": 0
        },
        "baseColorTexture": {
          "index": 4,
          "texCoord": 0
        }
      },
      "emissiveFactor": [
        1,
        1,
        1
      ],
      "emissiveTexture": {
        "index": 5,
        "texCoord": 0
      },
      "normalTexture": {
        "index": 6,
        "texCoord": 0
      },
      "occlusionTexture": {
        "index": 3,
        "texCoord": 0
      },
      "doubleSided": true,
      "name": "01___Default"
    }
  ],
  "textures": [
    {
      "sampler": 0,
      "source": 0
    },
    {
      "sampler": 1,
      "source": 1
    },
    {
      "sampler": 2,
      "source": 2
    },
    {
      "sampler": 3,
      "source": 3,
      "name": "textures/01___Default_metallicRoughness.png"
    },
    {
      "sampler": 4,
      "source": 4,
      "name": "textures/01___Default_baseColor.jpeg"
    },
    {
      "sampler": 5,
      "source": 5,
      "name": "textures/01___Default_emissive.jpeg"
    },
    {
      "sampler": 6,
      "source": 6,
      "name": "textures/01___Default_normal.png"
    }
  ],
  "samplers": [
    {
      "magFilter": 9729,
      "minFilter": 9987,
      "wrapS": 33071,
      "wrapT": 33071
    },
    {
      "magFilter": 9729,
      "minFilter": 9987,
      "wrapS": 33071,
      "wrapT": 33071
    },
    {
      "magFilter": 9729,
      "minFilter": 9987,
      "wrapS": 33071,
      "wrapT": 33071
    },
    {
      "magFilter": 9729,
      "minFilter": 9987,
      "wrapS": 10497,
      "wrapT": 10497
    },
    {
      "magFilter": 9729,
      "minFilter": 9987,
      "wrapS": 10497,
      "wrapT": 10497
    },
    {
      "magFilter": 9729,
      "minFilter": 9987,
      "wrapS": 10497,
      "wrapT": 10497
    },
    {
      "magFilter": 9729,
      "minFilter": 9987,
      "wrapS": 10497,
      "wrapT": 10497
    }
  ],
  "images": [
    {
      "mimeType": "image/png",
      "uri": "data:image/png;base64,"
    },
    {
      "mimeType": "image/png",
      "uri": "data:image/png;base64,"
    },
    {
      "mimeType": "image/png",
      "uri": "data:image/png;base64,"
    },
    {
      "mimeType": "image/png",
      "uri": "data:image/png;base64,"
    },
    {
      "mimeType": "image/jpeg",
      "uri": "data:image/jpeg;base64,"
    },
    {
      "mimeType": "image/jpeg",
      "uri": "data:image/jpeg;base64,"
    },
    {
      "mimeType": "image/png",
      "uri": "data:image/png;base64,"
    }
  ],
  "meshes": [
    {
      "primitives": [
        {
          "mode": 4,
          "attributes": {
            "POSITION": 0,
            "NORMAL": 1,
            "TEXCOORD_0": 2
          },
          "indices": 3,
          "material": 0
        }
      ]
    },
    {
      "primitives": [
        {
          "mode": 4,
          "attributes": {
            "POSITION": 4,
            "NORMAL": 5,
            "TEXCOORD_0": 6
          },
          "indices": 7,
          "material": 1
        }
      ]
    },
    {
      "primitives": [
        {
          "mode": 4,
          "attributes": {
            "NORMAL": 8,
            "POSITION": 9,
            "TANGENT": 10,
            "TEXCOORD_0": 11
          },
          "indices": 12,
          "material": 2
        }
      ]
    },
    {
      "primitives": [
        {
          "mode": 4,
          "attributes": {
            "NORMAL": 13,
            "POSITION": 14,
            "TANGENT": 15,
            "TEXCOORD_0": 16
          },
          "indices": 17,
          "material": 2
        }
      ]
    },
    {
      "primitives": [
        {
          "mode": 4,
          "attributes": {
            "NORMAL": 18,
            "POSITION": 19,
            "TANGENT": 20,
            "TEXCOORD_0": 21
          },
          "indices": 22,
          "material": 2
        }
      ]
    },
    {
      "primitives": [
        {
          "mode": 4,
          "attributes": {
            "NORMAL": 23,
            "POSITION": 24,
            "TANGENT": 25,
            "TEXCOORD_0": 26
          },
          "indices": 27,
          "material": 2
        }
      ]
    },
    {
      "primitives": [
        {
          "mode": 4,
          "attributes": {
            "NORMAL": 28,
            "POSITION": 29,
            "TANGENT": 30,
            "TEXCOORD_0": 31
          },
          "indices": 32,
          "material": 2
        }
      ]
    },
    {
      "primitives": [
        {
          "mode": 4,
          "attributes": {
            "NORMAL": 33,
            "POSITION": 34,
            "TANGENT": 35,
            "TEXCOORD_0": 36
          },
          "indices": 37,
          "material": 2
        }
      ]
    }
  ],
  "extensions": {
    "KHR_lights_punctual": {
      "lights": [
        {
          "name": "DirectionalLight",
          "color": [
            1,
            1,
            1
          ],
          "intensity": 1,
          "type": "directional"
        }
      ]
    }
  },
  "extensionsUsed": [
    "KHR_lights_punctual"
  ]
}