{
  "asset": {
    "version": "2.0",
    "generator": "THREE.GLTFExporter"
  },
  "scenes": [
    {
      "name": "Scene",
      "nodes": [
        15,
        16,
        17
      ]
    }
  ],
  "scene": 0,
  "nodes": [
    {
      "name": "Object_4",
      "extras": {
        "name": "Object_4"
      },
      "mesh": 0
    },
    {
      "matrix": [
        -0.8791376352310181,
        0,
        3.4234882609754174e-7,
        0,
        0,
        0.08173826336860657,
        0,
        0,
        -2.3815563043276934e-7,
        0,
        -0.6115738153457642,
        0,
        -0.41524165868759155,
        0,
        0,
        1
      ],
      "name": "Metal_inner_1",
      "extras": {
        "name": "Metal_inner_1"
      },
      "children": [
        0
      ]
    },
    {
      "name": "Object_6",
      "extras": {
        "name": "Object_6"
      },
      "mesh": 1
    },
    {
      "name": "Object_7",
      "extras": {
        "name": "Object_7"
      },
      "mesh": 2
    },
    {
      "matrix": [
        -1,
        0,
        3.8941436741879443e-7,
        0,
        0,
        1,
        0,
        0,
        -3.8941436741879443e-7,
        0,
        -1,
        0,
        -0.41524165868759155,
        0,
        0,
        1
      ],
      "name": "Slider_cylinder_2",
      "extras": {
        "name": "Slider_cylinder_2"
      },
      "children": [
        2,
        3
      ]
    },
    {
      "name": "Object_9",
      "extras": {
        "name": "Object_9"
      },
      "mesh": 3
    },
    {
      "matrix": [
        -1,
        0,
        3.8941436741879443e-7,
        0,
        0,
        1,
        0,
        0,
        -3.8941436741879443e-7,
        0,
        -1,
        0,
        -0.41524165868759155,
        0,
        0,
        1
      ],
      "name": "Slider_plane_3",
      "extras": {
        "name": "Slider_plane_3"
      },
      "children": [
        5
      ]
    },
    {
      "name": "Object_11",
      "extras": {
        "name": "Object_11"
      },
      "mesh": 4
    },
    {
      "name": "Object_12",
      "extras": {
        "name": "Object_12"
      },
      "mesh": 5
    },
    {
      "matrix": [
        -1,
        0,
        3.8941436741879443e-7,
        0,
        0,
        1,
        0,
        0,
        -3.8941436741879443e-7,
        0,
        -1,
        0,
        -0.41524165868759155,
        0,
        0,
        1
      ],
      "name": "Base_4",
      "extras": {
        "name": "Base_4"
      },
      "children": [
        7,
        8
      ]
    },
    {
      "name": "Object_14",
      "extras": {
        "name": "Object_14"
      },
      "mesh": 6
    },
    {
      "matrix": [
        -1,
        0,
        3.8941436741879443e-7,
        0,
        0,
        1,
        0,
        0,
        -3.8941436741879443e-7,
        0,
        -1,
        0,
        -0.41524165868759155,
        0,
        0,
        1
      ],
      "name": "Metal_5",
      "extras": {
        "name": "Metal_5"
      },
      "children": [
        10
      ]
    },
    {
      "matrix": [
        1,
        0,
        0,
        0,
        0,
        2.220446049250313e-16,
        1,
        0,
        0,
        -1,
        2.220446049250313e-16,
        0,
        0,
        0,
        0,
        1
      ],
      "name": "GLTF_SceneRootNode",
      "extras": {
        "name": "GLTF_SceneRootNode"
      },
      "children": [
        1,
        4,
        6,
        9,
        11
      ]
    },
    {
      "name": "root",
      "extras": {
        "name": "root"
      },
      "children": [
        12
      ]
    },
    {
      "matrix": [
        1,
        0,
        0,
        0,
        0,
        2.220446049250313e-16,
        -1,
        0,
        0,
        1,
        2.220446049250313e-16,
        0,
        0,
        0,
        0,
        1
      ],
      "name": "Sketchfab_model",
      "extras": {
        "name": "Sketchfab_model"
      },
      "children": [
        13
      ]
    },
    {
      "name": "Sketchfab_Scene",
      "children": [
        14
      ]
    },
    {
      "matrix": [
        1,
        0,
        0,
        0,
        0,
        1,
        0,
        0,
        0,
        0,
        1,
        0,
        5,
        10,
        7.5,
        1
      ],
      "name": "DirectionalLight",
      "extensions": {
        "KHR_lights_punctual": {
          "light": 0
        }
      }
    },
    {
      "matrix": [
        -0.009415205564426765,
        -5.428128173427404e-21,
        0.99995567596978,
        0,
        -1.1530301357789404e-20,
        0.01,
        -5.428128173427403e-23,
        0,
        -0.99995567596978,
        -1.1530301357789404e-18,
        -0.009415205564426765,
        0,
        0.6859696464217842,
        0.3938316104478635,
        -0.015541420257115246,
        1
      ],
      "name": "Box",
      "mesh": 7
    }
  ],
  "bufferViews": [
    {
      "buffer": 0,
      "byteOffset": 0,
      "byteLength": 288,
      "target": 34962,
      "byteStride": 12
    },
    {
      "buffer": 0,
      "byteOffset": 288,
      "byteLength": 288,
      "target": 34962,
      "byteStride": 12
    },
    {
      "buffer": 0,
      "byteOffset": 576,
      "byteLength": 192,
      "target": 34962,
      "byteStride": 8
    },
    {
      "buffer": 0,
      "byteOffset": 768,
      "byteLength": 144,
      "target": 34963
    },
    {
      "buffer": 0,
      "byteOffset": 912,
      "byteLength": 6804,
      "target": 34962,
      "byteStride": 12
    },
    {
      "buffer": 0,
      "byteOffset": 7716,
      "byteLength": 6804,
      "target": 34962,
      "byteStride": 12
    },
    {
      "buffer": 0,
      "byteOffset": 14520,
      "byteLength": 4536,
      "target": 34962,
      "byteStride": 8
    },
    {
      "buffer": 0,
      "byteOffset": 19056,
      "byteLength": 4536,
      "target": 34962,
      "byteStride": 8
    },
    {
      "buffer": 0,
      "byteOffset": 23592,
      "byteLength": 9984,
      "target": 34963
    },
    {
      "buffer": 0,
      "byteOffset": 33576,
      "byteLength": 15600,
      "target": 34962,
      "byteStride": 12
    },
    {
      "buffer": 0,
      "byteOffset": 49176,
      "byteLength": 15600,
      "target": 34962,
      "byteStride": 12
    },
    {
      "buffer": 0,
      "byteOffset": 64776,
      "byteLength": 10400,
      "target": 34962,
      "byteStride": 8
    },
    {
      "buffer": 0,
      "byteOffset": 75176,
      "byteLength": 19200,
      "target": 34963
    },
    {
      "buffer": 0,
      "byteOffset": 94376,
      "byteLength": 48,
      "target": 34962,
      "byteStride": 12
    },
    {
      "buffer": 0,
      "byteOffset": 94424,
      "byteLength": 48,
      "target": 34962,
      "byteStride": 12
    },
    {
      "buffer": 0,
      "byteOffset": 94472,
      "byteLength": 32,
      "target": 34962,
      "byteStride": 8
    },
    {
      "buffer": 0,
      "byteOffset": 94504,
      "byteLength": 32,
      "target": 34962,
      "byteStride": 8
    },
    {
      "buffer": 0,
      "byteOffset": 94536,
      "byteLength": 24,
      "target": 34963
    },
    {
      "buffer": 0,
      "byteOffset": 94560,
      "byteLength": 457080,
      "target": 34962,
      "byteStride": 12
    },
    {
      "buffer": 0,
      "byteOffset": 551640,
      "byteLength": 457080,
      "target": 34962,
      "byteStride": 12
    },
    {
      "buffer": 0,
      "byteOffset": 1008720,
      "byteLength": 304720,
      "target": 34962,
      "byteStride": 8
    },
    {
      "buffer": 0,
      "byteOffset": 1313440,
      "byteLength": 304720,
      "target": 34962,
      "byteStride": 8
    },
    {
      "buffer": 0,
      "byteOffset": 1618160,
      "byteLength": 356544,
      "target": 34963
    },
    {
      "buffer": 0,
      "byteOffset": 1974704,
      "byteLength": 227244,
      "target": 34962,
      "byteStride": 12
    },
    {
      "buffer": 0,
      "byteOffset": 2201948,
      "byteLength": 227244,
      "target": 34962,
      "byteStride": 12
    },
    {
      "buffer": 0,
      "byteOffset": 2429192,
      "byteLength": 151496,
      "target": 34962,
      "byteStride": 8
    },
    {
      "buffer": 0,
      "byteOffset": 2580688,
      "byteLength": 307200,
      "target": 34963
    },
    {
      "buffer": 0,
      "byteOffset": 2887888,
      "byteLength": 21120,
      "target": 34962,
      "byteStride": 12
    },
    {
      "buffer": 0,
      "byteOffset": 2909008,
      "byteLength": 21120,
      "target": 34962,
      "byteStride": 12
    },
    {
      "buffer": 0,
      "byteOffset": 2930128,
      "byteLength": 14080,
      "target": 34962,
      "byteStride": 8
    },
    {
      "buffer": 0,
      "byteOffset": 2944208,
      "byteLength": 30960,
      "target": 34963
    },
    {
      "buffer": 0,
      "byteOffset": 2975168,
      "byteLength": 288,
      "target": 34962,
      "byteStride": 12
    },
    {
      "buffer": 0,
      "byteOffset": 2975456,
      "byteLength": 288,
      "target": 34962,
      "byteStride": 12
    },
    {
      "buffer": 0,
      "byteOffset": 2975744,
      "byteLength": 192,
      "target": 34962,
      "byteStride": 8
    },
    {
      "buffer": 0,
      "byteOffset": 2975936,
      "byteLength": 72,
      "target": 34963
    }
  ],
  "buffers": [
    {
      "byteLength": 2976008,
      "uri": "data:application/octet-stream;base64,"
    }
  ],
  "accessors": [
    {
      "bufferView": 0,
      "componentType": 5126,
      "count": 24,
      "max": [
        1,
        1,
        1
      ],
      "min": [
        -1,
        -1,
        -1
      ],
      "type": "VEC3"
    },
    {
      "bufferView": 1,
      "componentType": 5126,
      "count": 24,
      "max": [
        4.580951690673828,
        -0.024672865867614746,
        1.0072286128997803
      ],
      "min": [
        2.580951690673828,
        -2.0246729850769043,
        -0.9927713871002197
      ],
      "type": "VEC3"
    },
    {
      "bufferView": 2,
      "componentType": 5126,
      "count": 24,
      "max": [
        0.9345281720161438,
        0.6907751560211182
      ],
      "min": [
        0.47692614793777466,
        0.08063914626836777
      ],
      "type": "VEC2"
    },
    {
      "bufferView": 3,
      "componentType": 5125,
      "count": 36,
      "max": [
        23
      ],
      "min": [
        0
      ],
      "type": "SCALAR"
    },
    {
      "bufferView": 4,
      "componentType": 5126,
      "count": 567,
      "max": [
        0.2602033019065857,
        1,
        0.2602033019065857
      ],
      "min": [
        -0.2602033019065857,
        0.9655516147613525,
        -0.2602033019065857
      ],
      "type": "VEC3"
    },
    {
      "bufferView": 5,
      "componentType": 5126,
      "count": 567,
      "max": [
        0.7844482660293579,
        0.5048766136169434,
        0.42404603958129883
      ],
      "min": [
        -0.05480220913887024,
        0.45560958981513977,
        -0.41520440578460693
      ],
      "type": "VEC3"
    },
    {
      "bufferView": 6,
      "componentType": 5126,
      "count": 567,
      "max": [
        0.8168272972106934,
        0.44218116998672485
      ],
      "min": [
        0.6233110427856445,
        0.24866481125354767
      ],
      "type": "VEC2"
    },
    {
      "bufferView": 7,
      "componentType": 5126,
      "count": 567,
      "max": [
        0.8168272972106934,
        0.44218116998672485
      ],
      "min": [
        0.6233110427856445,
        0.24866481125354767
      ],
      "type": "VEC2"
    },
    {
      "bufferView": 8,
      "componentType": 5125,
      "count": 2496,
      "max": [
        566
      ],
      "min": [
        0
      ],
      "type": "SCALAR"
    },
    {
      "bufferView": 9,
      "componentType": 5126,
      "count": 1300,
      "max": [
        0.9990432858467102,
        0.9999450445175171,
        0.9990432858467102
      ],
      "min": [
        -0.9990432858467102,
        -1,
        -0.9990432858467102
      ],
      "type": "VEC3"
    },
    {
      "bufferView": 10,
      "componentType": 5126,
      "count": 1300,
      "max": [
        0.8485115766525269,
        0.5054805874824524,
        0.48810940980911255
      ],
      "min": [
        -0.11886554956436157,
        0.21763695776462555,
        -0.47926774621009827
      ],
      "type": "VEC3"
    },
    {
      "bufferView": 11,
      "componentType": 5126,
      "count": 1300,
      "max": [
        0.9489157795906067,
        0.5750642418861389
      ],
      "min": [
        0.40308433771133423,
        0.049184028059244156
      ],
      "type": "VEC2"
    },
    {
      "bufferView": 12,
      "componentType": 5125,
      "count": 4800,
      "max": [
        1299
      ],
      "min": [
        0
      ],
      "type": "SCALAR"
    },
    {
      "bufferView": 13,
      "componentType": 5126,
      "count": 4,
      "max": [
        0,
        1,
        0
      ],
      "min": [
        0,
        1,
        0
      ],
      "type": "VEC3"
    },
    {
      "bufferView": 14,
      "componentType": 5126,
      "count": 4,
      "max": [
        2.457446575164795,
        0.31743764877319336,
        0.5553844571113586
      ],
      "min": [
        -1.7803128957748413,
        0.31743764877319336,
        -0.5465428233146667
      ],
      "type": "VEC3"
    },
    {
      "bufferView": 15,
      "componentType": 5126,
      "count": 4,
      "max": [
        0.9590684175491333,
        0.9884124994277954
      ],
      "min": [
        0.7065314054489136,
        0.017213359475135803
      ],
      "type": "VEC2"
    },
    {
      "bufferView": 16,
      "componentType": 5126,
      "count": 4,
      "max": [
        0.9590684175491333,
        0.9884124994277954
      ],
      "min": [
        0.7065314054489136,
        0.017213359475135803
      ],
      "type": "VEC2"
    },
    {
      "bufferView": 17,
      "componentType": 5125,
      "count": 6,
      "max": [
        3
      ],
      "min": [
        0
      ],
      "type": "SCALAR"
    },
    {
      "bufferView": 18,
      "componentType": 5126,
      "count": 38090,
      "max": [
        1,
        1,
        1
      ],
      "min": [
        -1,
        -1,
        -1
      ],
      "type": "VEC3"
    },
    {
      "bufferView": 19,
      "componentType": 5126,
      "count": 38090,
      "max": [
        2.324392795562744,
        0.39732295274734497,
        0.7467036843299866
      ],
      "min": [
        -3.153066635131836,
        -0.43584153056144714,
        -0.7441902160644531
      ],
      "type": "VEC3"
    },
    {
      "bufferView": 20,
      "componentType": 5126,
      "count": 38090,
      "max": [
        0.9732995629310608,
        0.8130921721458435
      ],
      "min": [
        0.02603207901120186,
        0
      ],
      "type": "VEC2"
    },
    {
      "bufferView": 21,
      "componentType": 5126,
      "count": 38090,
      "max": [
        0.9732995629310608,
        0.8130921721458435
      ],
      "min": [
        0.02603207901120186,
        0
      ],
      "type": "VEC2"
    },
    {
      "bufferView": 22,
      "componentType": 5125,
      "count": 89136,
      "max": [
        38089
      ],
      "min": [
        0
      ],
      "type": "SCALAR"
    },
    {
      "bufferView": 23,
      "componentType": 5126,
      "count": 18937,
      "max": [
        1,
        1,
        1
      ],
      "min": [
        -1,
        -1,
        -1
      ],
      "type": "VEC3"
    },
    {
      "bufferView": 24,
      "componentType": 5126,
      "count": 18937,
      "max": [
        2.511730670928955,
        0.38875070214271545,
        0.9269940853118896
      ],
      "min": [
        -3.340404987335205,
        -0.43584153056144714,
        -0.9244806170463562
      ],
      "type": "VEC3"
    },
    {
      "bufferView": 25,
      "componentType": 5126,
      "count": 18937,
      "max": [
        0.8871609568595886,
        1.0000001192092896
      ],
      "min": [
        0.0000013053576140009682,
        0
      ],
      "type": "VEC2"
    },
    {
      "bufferView": 26,
      "componentType": 5125,
      "count": 76800,
      "max": [
        18936
      ],
      "min": [
        0
      ],
      "type": "SCALAR"
    },
    {
      "bufferView": 27,
      "componentType": 5126,
      "count": 1760,
      "max": [
        0.9997656941413879,
        1,
        1
      ],
      "min": [
        -1,
        -1,
        -1
      ],
      "type": "VEC3"
    },
    {
      "bufferView": 28,
      "componentType": 5126,
      "count": 1760,
      "max": [
        4.027018070220947,
        0.22535276412963867,
        0.6351050734519958
      ],
      "min": [
        2.0487475395202637,
        -0.18414545059204102,
        -0.6262627243995667
      ],
      "type": "VEC3"
    },
    {
      "bufferView": 29,
      "componentType": 5126,
      "count": 1760,
      "max": [
        0.875,
        1
      ],
      "min": [
        0.125,
        0
      ],
      "type": "VEC2"
    },
    {
      "bufferView": 30,
      "componentType": 5125,
      "count": 7740,
      "max": [
        1759
      ],
      "min": [
        0
      ],
      "type": "SCALAR"
    },
    {
      "bufferView": 31,
      "componentType": 5126,
      "count": 24,
      "max": [
        0.5,
        0.5,
        0.5
      ],
      "min": [
        -0.5,
        -0.5,
        -0.5
      ],
      "type": "VEC3"
    },
    {
      "bufferView": 32,
      "componentType": 5126,
      "count": 24,
      "max": [
        1,
        1,
        1
      ],
      "min": [
        -1,
        -1,
        -1
      ],
      "type": "VEC3"
    },
    {
      "bufferView": 33,
      "componentType": 5126,
      "count": 24,
      "max": [
        1,
        1
      ],
      "min": [
        0,
        0
      ],
      "type": "VEC2"
    },
    {
      "bufferView": 34,
      "componentType": 5123,
      "count": 36,
      "max": [
        23
      ],
      "min": [
        0
      ],
      "type": "SCALAR"
    }
  ],
  "materials": [
    {
      "pbrMetallicRoughness": {
        "metallicFactor": 0,
        "roughnessFactor": 0.395455,
        "baseColorTexture": {
          "index": 0,
          "texCoord": 0
        }
      },
      "doubleSided": true,
      "name": "Smooth"
    },
    {
      "pbrMetallicRoughness": {
        "metallicFactor": 0.13547385829548425,
        "roughnessFactor": 0.36652043850208854,
        "baseColorTexture": {
          "index": 0,
          "texCoord": 0
        }
      },
      "emissiveFactor": [
        0.25818285291079235,
        0.0027317428517647058,
        0.0027317428517647058
      ],
      "doubleSided": true,
      "name": "Bump"
    },
    {
      "pbrMetallicRoughness": {
        "baseColorFactor": [
          0.667414,
          0.667414,
          0.667414,
          1
        ],
        "metallicFactor": 1,
        "roughnessFactor": 0.0727276
      },
      "doubleSided": true,
      "name": "Metal"
    },
    {
      "pbrMetallicRoughness": {
        "baseColorFactor": [
          0.9046611743890203,
          0.8796223968851662,
          0.8796223968851662,
          1
        ],
        "metallicFactor": 0,
        "roughnessFactor": 1,
        "baseColorTexture": {
          "index": 1,
          "texCoord": 0
        }
      },
      "emissiveFactor": [
        0.982250550332711,
        0.9734452903978066,
        0.9734452903978066
      ],
      "emissiveTexture": {
        "index": 2,
        "texCoord": 0
      },
      "alphaMode": "BLEND",
      "doubleSided": true,
      "extensions": {
        "KHR_materials_emissive_strength": {
          "emissiveStrength": 1000
        }
      }
    }
  ],
  "textures": [
    {
      "sampler": 0,
      "source": 0,
      "name": "textures/Smooth_baseColor.png"
    },
    {
      "sampler": 1,
      "source": 1
    },
    {
      "sampler": 2,
      "source": 2
    }
  ],
  "samplers": [
    {
      "magFilter": 9729,
      "minFilter": 9987,
      "wrapS": 10497,
      "wrapT": 10497
    },
    {
      "magFilter": 9729,
      "minFilter": 9987,
      "wrapS": 33071,
      "wrapT": 33071
    },
    {
      "magFilter": 9729,
      "minFilter": 9987,
      "wrapS": 33071,
      "wrapT": 33071
    }
  ],
  "images": [
    {
      "mimeType": "image/png",
      "uri": "data:image/png;base64,"
    },
    {
      "mimeType": "image/png",
      "uri": "data:image/png;base64,"
    },
    {
      "mimeType": "image/png",
      "uri": "data:image/png;base64,"
    }
  ],
  "meshes": [
    {
      "primitives": [
        {
          "mode": 4,
          "attributes": {
            "NORMAL": 0,
            "POSITION": 1,
            "TEXCOORD_0": 2
          },
          "indices": 3,
          "material": 0
        }
      ]
    },
    {
      "primitives": [
        {
          "mode": 4,
          "attributes": {
            "NORMAL": 4,
            "POSITION": 5,
            "TEXCOORD_0": 6,
            "TEXCOORD_1": 7
          },
          "indices": 8,
          "material": 1
        }
      ]
    },
    {
      "primitives": [
        {
          "mode": 4,
          "attributes": {
            "NORMAL": 9,
            "POSITION": 10,
            "TEXCOORD_0": 11
          },
          "indices": 12,
          "material": 0
        }
      ]
    },
    {
      "primitives": [
        {
          "mode": 4,
          "attributes": {
            "NORMAL": 13,
            "POSITION": 14,
            "TEXCOORD_0": 15,
            "TEXCOORD_1": 16
          },
          "indices": 17,
          "material": 1
        }
      ]
    },
    {
      "primitives": [
        {
          "mode": 4,
          "attributes": {
            "NORMAL": 18,
            "POSITION": 19,
            "TEXCOORD_0": 20,
            "TEXCOORD_1": 21
          },
          "indices": 22,
          "material": 1
        }
      ]
    },
    {
      "primitives": [
        {
          "mode": 4,
          "attributes": {
            "NORMAL": 23,
            "POSITION": 24,
            "TEXCOORD_0": 25
          },
          "indices": 26,
          "material": 0
        }
      ]
    },
    {
      "primitives": [
        {
          "mode": 4,
          "attributes": {
            "NORMAL": 27,
            "POSITION": 28,
            "TEXCOORD_0": 29
          },
          "indices": 30,
          "material": 2
        }
      ]
    },
    {
      "primitives": [
        {
          "mode": 4,
          "attributes": {
            "POSITION": 31,
            "NORMAL": 32,
            "TEXCOORD_0": 33
          },
          "indices": 34,
          "material": 3
        }
      ]
    }
  ],
  "extensions": {
    "KHR_lights_punctual": {
      "lights": [
        {
          "name": "DirectionalLight",
          "color": [
            1,
            1,
            1
          ],
          "intensity": 1,
          "type": "directional"
        }
      ]
    }
  },
  "extensionsUsed": [
    "KHR_lights_punctual",
    "KHR_materials_emissive_strength"
  ]
}